<svg width="238" height="50" viewBox="0 0 238 50" fill="none" xmlns="http://www.w3.org/2000/svg">
<g clip-path="url(#clip0_0_1)">
<path fill-rule="evenodd" clip-rule="evenodd" d="M54.9021 13.3154L42.0362 20.8181C40.5023 21.7126 38.6092 21.7265 37.0624 20.8546L30.9629 17.4168V21.1153L35.4966 23.7894C38.0037 25.2682 41.1161 25.2686 43.6235 23.7905L57.2826 15.7389C58.1702 15.2157 58.2 13.9423 57.3378 13.3781C56.6033 12.8976 55.6603 12.8733 54.9021 13.3154ZM54.9021 20.9747L42.0362 28.4774C40.5023 29.3718 38.6092 29.3857 37.0624 28.5139L30.9629 25.0761V28.7745L35.4966 31.4487C38.0037 32.9275 41.1161 32.9279 43.6235 31.4498L57.2826 23.3982C58.1702 22.8749 58.2 21.6016 57.3378 21.0374C56.6033 20.5568 55.6603 20.5326 54.9021 20.9747ZM42.0362 36.0111L54.9021 28.5084C55.6603 28.0662 56.6033 28.0905 57.3378 28.5711C58.2 29.1353 58.1702 30.4086 57.2826 30.9319L43.6235 38.9835C41.1161 40.4616 38.0037 40.4611 35.4966 38.9824L30.9629 36.3082V32.6098L37.0624 36.0476C38.6092 36.9194 40.5023 36.9055 42.0362 36.0111Z" fill="white"/>
<path d="M84.4 38.94C82.4 38.94 80.7467 38.6333 79.44 38.02C78.16 37.4067 77.2 36.4867 76.56 35.26C75.92 34.0067 75.6 32.4467 75.6 30.58V24.06H74.24C73.3867 24.06 72.72 23.8333 72.24 23.38C71.7867 22.9267 71.56 22.2733 71.56 21.42C71.56 20.5667 71.7867 19.9267 72.24 19.5C72.72 19.0467 73.3867 18.82 74.24 18.82H75.6V16.34C75.6 15.1667 75.9067 14.2733 76.52 13.66C77.1333 13.0467 78.0133 12.74 79.16 12.74C80.3067 12.74 81.1867 13.0467 81.8 13.66C82.4133 14.2733 82.72 15.1667 82.72 16.34V18.82H86C86.88 18.82 87.5467 19.0467 88 19.5C88.48 19.9267 88.72 20.5667 88.72 21.42C88.72 22.2733 88.48 22.9267 88 23.38C87.5467 23.8333 86.88 24.06 86 24.06H82.72V30.34C82.72 31.3267 82.9467 32.06 83.4 32.54C83.88 32.9933 84.6267 33.22 85.64 33.22C86.0133 33.22 86.3733 33.18 86.72 33.1C87.0667 33.02 87.3867 32.98 87.68 32.98C88.1067 32.9533 88.4533 33.0867 88.72 33.38C88.9867 33.6467 89.12 34.2733 89.12 35.26C89.12 36.06 89 36.74 88.76 37.3C88.52 37.8333 88.0933 38.22 87.48 38.46C87.1067 38.5933 86.6 38.7 85.96 38.78C85.32 38.8867 84.8 38.94 84.4 38.94ZM100.876 38.94C98.6893 38.94 96.7826 38.5267 95.1559 37.7C93.5293 36.8733 92.2626 35.6867 91.3559 34.14C90.4493 32.5933 89.9959 30.7667 89.9959 28.66C89.9959 27.06 90.2493 25.6333 90.7559 24.38C91.2626 23.1 91.9959 22.02 92.9559 21.14C93.9159 20.2333 95.0626 19.5533 96.3959 19.1C97.7293 18.62 99.2226 18.38 100.876 18.38C103.063 18.38 104.969 18.7933 106.596 19.62C108.223 20.4467 109.476 21.6333 110.356 23.18C111.263 24.7 111.716 26.5267 111.716 28.66C111.716 30.2333 111.463 31.66 110.956 32.94C110.449 34.22 109.716 35.3133 108.756 36.22C107.823 37.1 106.676 37.78 105.316 38.26C103.983 38.7133 102.503 38.94 100.876 38.94ZM100.876 33.7C101.596 33.7 102.236 33.5267 102.796 33.18C103.356 32.8067 103.783 32.26 104.076 31.54C104.396 30.7933 104.556 29.8333 104.556 28.66C104.556 26.8733 104.209 25.5933 103.516 24.82C102.823 24.02 101.943 23.62 100.876 23.62C100.156 23.62 99.5159 23.7933 98.9559 24.14C98.3959 24.4867 97.9559 25.0333 97.6359 25.78C97.3159 26.5 97.1559 27.46 97.1559 28.66C97.1559 30.42 97.5026 31.7 98.1959 32.5C98.8893 33.3 99.7826 33.7 100.876 33.7ZM122.658 38.94C120.978 38.94 119.485 38.5267 118.178 37.7C116.898 36.8733 115.885 35.6867 115.138 34.14C114.418 32.5933 114.058 30.7667 114.058 28.66C114.058 26.5 114.418 24.66 115.138 23.14C115.885 21.62 116.898 20.4467 118.178 19.62C119.485 18.7933 120.978 18.38 122.658 18.38C124.125 18.38 125.445 18.7267 126.618 19.42C127.792 20.1133 128.578 21.0067 128.978 22.1H128.538V13.54C128.538 12.3667 128.845 11.4733 129.458 10.86C130.072 10.2467 130.952 9.94 132.098 9.94C133.218 9.94 134.085 10.2467 134.698 10.86C135.338 11.4733 135.658 12.3667 135.658 13.54V35.26C135.658 36.4333 135.352 37.3267 134.738 37.94C134.152 38.5533 133.285 38.86 132.138 38.86C131.018 38.86 130.152 38.5533 129.538 37.94C128.925 37.3267 128.618 36.4333 128.618 35.26V32.98L129.058 34.94C128.685 36.14 127.898 37.1133 126.698 37.86C125.525 38.58 124.178 38.94 122.658 38.94ZM124.938 33.7C125.658 33.7 126.298 33.5267 126.858 33.18C127.418 32.8067 127.845 32.26 128.138 31.54C128.458 30.7933 128.618 29.8333 128.618 28.66C128.618 26.8733 128.272 25.5933 127.578 24.82C126.885 24.02 126.005 23.62 124.938 23.62C124.218 23.62 123.578 23.7933 123.018 24.14C122.458 24.4867 122.018 25.0333 121.698 25.78C121.378 26.5 121.218 27.46 121.218 28.66C121.218 30.42 121.565 31.7 122.258 32.5C122.952 33.3 123.845 33.7 124.938 33.7ZM149.743 38.94C147.556 38.94 145.65 38.5267 144.023 37.7C142.396 36.8733 141.13 35.6867 140.223 34.14C139.316 32.5933 138.863 30.7667 138.863 28.66C138.863 27.06 139.116 25.6333 139.623 24.38C140.13 23.1 140.863 22.02 141.823 21.14C142.783 20.2333 143.93 19.5533 145.263 19.1C146.596 18.62 148.09 18.38 149.743 18.38C151.93 18.38 153.836 18.7933 155.463 19.62C157.09 20.4467 158.343 21.6333 159.223 23.18C160.13 24.7 160.583 26.5267 160.583 28.66C160.583 30.2333 160.33 31.66 159.823 32.94C159.316 34.22 158.583 35.3133 157.623 36.22C156.69 37.1 155.543 37.78 154.183 38.26C152.85 38.7133 151.37 38.94 149.743 38.94ZM149.743 33.7C150.463 33.7 151.103 33.5267 151.663 33.18C152.223 32.8067 152.65 32.26 152.943 31.54C153.263 30.7933 153.423 29.8333 153.423 28.66C153.423 26.8733 153.076 25.5933 152.383 24.82C151.69 24.02 150.81 23.62 149.743 23.62C149.023 23.62 148.383 23.7933 147.823 24.14C147.263 24.4867 146.823 25.0333 146.503 25.78C146.183 26.5 146.023 27.46 146.023 28.66C146.023 30.42 146.37 31.7 147.063 32.5C147.756 33.3 148.65 33.7 149.743 33.7Z" fill="white"/>
</g>
<defs>
<clipPath id="clip0_0_1">
<rect width="238" height="50" fill="white"/>
</clipPath>
</defs>
</svg>
